<?xml version="1.0" standalone="no"?>
<!DOCTYPE svg PUBLIC "-//W3C//DTD SVG 20010904//EN"
 "http://www.w3.org/TR/2001/REC-SVG-20010904/DTD/svg10.dtd">
<svg version="1.0" xmlns="http://www.w3.org/2000/svg"
 width="512.000000pt" height="512.000000pt" viewBox="0 0 512.000000 512.000000"
 preserveAspectRatio="xMidYMid meet">
<metadata>
Created by potrace 1.14, written by Peter Selinger 2001-2017
</metadata>
<g transform="translate(0.000000,512.000000) scale(0.100000,-0.100000)"
fill="#000000" stroke="none">
<path d="M3506 4620 c-35 -17 -42 -18 -74 -5 -19 8 -54 15 -77 15 -46 0 -65
-18 -79 -72 -5 -21 -13 -28 -30 -28 -51 0 -106 -70 -109 -138 -2 -50 26 -86
85 -114 26 -12 52 -33 57 -46 17 -37 61 -49 142 -41 39 5 77 13 86 20 11 10
20 9 45 -5 23 -14 41 -17 76 -12 79 11 172 108 172 182 0 39 -30 83 -70 100
-23 10 -36 23 -37 36 -3 29 -42 83 -75 103 -43 25 -71 27 -112 5z"/>
<path d="M2843 4578 c-4 -7 -13 -22 -18 -33 -6 -11 -19 -24 -30 -30 -11 -6
-31 -17 -44 -24 l-24 -13 24 -14 c13 -7 32 -13 41 -14 11 0 21 -13 28 -40 13
-48 33 -51 50 -9 8 18 28 38 51 50 22 11 39 23 39 27 0 4 -16 14 -35 21 -28
10 -37 20 -45 52 -11 40 -23 49 -37 27z m60 -91 l29 -10 -31 -13 c-18 -7 -36
-25 -42 -41 l-11 -28 -13 35 c-9 26 -19 37 -41 41 l-29 6 32 14 c19 8 37 25
45 43 l12 31 10 -34 c7 -24 18 -36 39 -44z"/>
<path d="M2344 4555 c2 -14 -1 -28 -5 -31 -5 -3 -9 -1 -9 5 0 6 -9 15 -20 21
-26 14 -26 0 0 -28 l21 -22 -35 0 c-19 0 -38 -4 -41 -10 -4 -6 9 -10 32 -10
l38 -1 -27 -15 c-16 -8 -28 -19 -28 -24 0 -16 15 -12 44 11 l26 20 0 -40 c0
-23 5 -41 10 -41 6 0 10 17 10 38 l1 37 19 -23 c11 -13 24 -20 30 -17 8 5 4
15 -11 31 l-22 24 31 0 c18 0 32 5 32 10 0 6 -10 10 -22 10 l-23 1 22 18 c32
27 16 34 -23 10 l-33 -20 2 32 c1 18 -3 34 -10 36 -7 3 -10 -5 -9 -22z"/>
<path d="M1613 4512 c-27 -4 -31 -22 -5 -22 21 0 47 16 36 22 -5 2 -19 2 -31
0z"/>
<path d="M1530 4497 l-25 -10 24 -5 c13 -2 28 1 33 6 15 15 -4 21 -32 9z"/>
<path d="M1670 4500 c0 -5 14 -10 31 -10 17 0 28 4 24 10 -3 6 -17 10 -31 10
-13 0 -24 -4 -24 -10z"/>
<path d="M1750 4489 c0 -10 40 -32 47 -25 3 2 2 9 -1 14 -8 13 -46 22 -46 11z"/>
<path d="M1457 4479 c-17 -10 -23 -29 -9 -29 5 0 16 6 27 13 22 17 7 29 -18
16z"/>
<path d="M1820 4451 c0 -12 42 -42 49 -36 5 6 -29 45 -41 45 -4 0 -8 -4 -8 -9z"/>
<path d="M1388 4436 c-29 -21 -22 -39 7 -20 14 9 25 20 25 25 0 13 -12 11 -32
-5z"/>
<path d="M834 4386 c-15 -47 -21 -56 -41 -56 -13 0 -24 1 -25 2 -7 4 -48 -24
-48 -33 0 -5 19 -22 43 -37 42 -27 42 -27 39 -79 -2 -29 0 -53 5 -53 5 0 25
14 46 31 l38 31 40 -17 c53 -24 65 -12 45 45 l-15 44 35 38 c18 21 34 43 34
48 0 6 -20 8 -54 5 l-54 -6 -23 42 c-13 23 -29 44 -36 46 -7 3 -19 -19 -29
-51z m53 -38 c-32 -20 -47 4 -31 47 6 14 10 12 25 -11 14 -21 15 -30 6 -36z
m100 -27 c-30 -39 -34 -41 -45 -16 -10 21 -8 24 11 27 44 7 48 6 34 -11z m-70
-10 c19 -24 15 -52 -9 -72 -25 -22 -21 -22 -53 -7 -25 11 -29 25 -19 65 9 32
60 41 81 14z m-101 -16 c-3 -9 -6 -21 -6 -26 0 -5 -13 -3 -30 6 -40 21 -38 30
6 33 30 2 35 0 30 -13z m143 -85 c11 -34 11 -34 -24 -18 -28 13 -30 19 -13 36
18 18 25 15 37 -18z m-106 1 c16 -6 16 -9 -8 -31 l-26 -24 3 32 c2 34 3 35 31
23z"/>
<path d="M1880 4398 c0 -8 9 -23 20 -33 16 -15 20 -15 20 -3 0 8 -9 23 -20 33
-16 15 -20 15 -20 3z"/>
<path d="M1331 4368 c-5 -13 -7 -25 -4 -28 5 -6 33 30 33 42 0 17 -21 7 -29
-14z"/>
<path d="M1926 4332 c-3 -5 3 -21 15 -33 l20 -24 -7 25 c-8 31 -20 45 -28 32z"/>
<path d="M1317 4313 c-11 -10 -8 -53 3 -53 6 0 10 14 10 30 0 31 -2 35 -13 23z"/>
<path d="M505 4265 c-69 -37 -403 -273 -404 -287 -1 -8 235 -346 258 -371 16
-16 19 -16 61 11 90 57 352 279 371 313 8 16 -44 101 -141 230 -19 26 -43 59
-54 73 -10 14 -24 33 -30 41 -10 14 -17 13 -61 -10z"/>
<path d="M1957 4254 c-8 -8 14 -54 24 -49 8 6 0 43 -11 50 -4 2 -10 2 -13 -1z"/>
<path d="M1317 4233 c-7 -11 11 -53 21 -53 11 0 3 48 -9 55 -4 3 -10 2 -12 -2z"/>
<path d="M2578 4163 c-106 -18 -267 -72 -376 -127 -319 -158 -494 -375 -495
-613 -1 -41 -1 -42 -41 -49 -96 -15 -201 -56 -233 -90 -62 -67 -139 -325 -188
-634 -3 -19 -7 -46 -10 -60 -9 -46 -20 -125 -30 -209 -3 -23 -7 -55 -9 -70 -3
-14 -7 -53 -11 -86 -3 -33 -7 -73 -10 -90 -10 -64 -15 -110 -21 -174 -4 -36
-8 -75 -9 -86 -2 -11 -4 -27 -4 -35 -1 -13 -19 -15 -123 -13 -68 1 -143 -2
-168 -8 -25 -6 -54 -12 -65 -15 -39 -8 -109 -60 -127 -95 -22 -44 -31 -79 -47
-190 -5 -35 -8 -163 -6 -284 3 -206 6 -259 21 -345 3 -19 8 -48 10 -63 7 -54
34 -147 49 -171 23 -35 5 -33 370 -40 128 -2 158 -9 184 -40 8 -9 17 -13 22
-10 5 3 42 -11 83 -30 41 -20 92 -39 113 -44 63 -14 198 -3 258 22 24 11 77
16 173 17 160 1 252 14 269 35 10 13 62 15 445 9 323 -5 443 -10 473 -20 53
-17 90 -23 210 -31 203 -15 457 -7 536 16 20 6 55 8 77 6 57 -5 152 16 204 46
40 23 54 25 188 28 126 2 167 3 227 9 25 2 64 113 79 226 3 28 8 52 9 55 8 13
19 236 19 370 0 270 -26 413 -85 469 -28 26 -71 50 -102 57 -66 14 -127 21
-205 23 -48 1 -87 3 -88 4 -1 1 -5 38 -8 82 -13 155 -16 180 -21 225 -3 25 -8
69 -10 99 -5 58 -23 201 -30 241 -2 14 -7 46 -9 72 -29 244 -112 608 -167 723
-34 73 -68 103 -149 133 -84 30 -309 65 -471 71 -11 1 -19 14 -23 39 -15 81
-66 196 -110 246 -31 35 -32 40 -5 26 11 -7 32 -9 45 -6 38 10 30 47 -23 106
-103 115 -271 197 -413 202 l-45 1 41 13 c57 17 84 32 84 48 0 30 -110 33
-252 9z"/>
<path d="M1320 4153 c-41 -7 -50 -25 -10 -21 22 2 39 -2 47 -12 10 -12 14 -12
21 -2 5 7 16 10 25 6 10 -3 17 -1 17 5 0 7 -6 13 -12 15 -29 9 -65 13 -88 9z"/>
<path d="M1228 4133 c-10 -2 -18 -9 -18 -15 0 -6 10 -8 23 -4 12 3 26 6 30 6
5 0 5 5 2 10 -6 10 -9 11 -37 3z"/>
<path d="M1446 4121 c-3 -5 5 -16 19 -25 31 -21 40 -6 10 17 -13 9 -26 13 -29
8z"/>
<path d="M1150 4099 c-18 -13 -20 -19 -9 -19 21 0 54 25 43 33 -5 3 -21 -3
-34 -14z"/>
<path d="M1380 4082 c0 -5 9 -17 20 -27 16 -14 20 -15 20 -4 0 16 -19 39 -32
39 -4 0 -8 -4 -8 -8z"/>
<path d="M1079 4062 c-13 -11 -18 -21 -12 -25 6 -4 21 5 33 18 27 29 13 33
-21 7z"/>
<path d="M1502 4040 c1 -16 5 -30 10 -30 4 0 8 14 8 30 0 17 -4 30 -9 30 -5 0
-9 -13 -9 -30z"/>
<path d="M1027 4012 c-19 -21 -22 -32 -7 -32 10 0 34 39 27 46 -2 2 -11 -4
-20 -14z"/>
<path d="M1449 4010 c12 -11 27 -17 33 -14 11 7 -21 33 -42 33 -10 0 -8 -6 9
-19z"/>
<path d="M4236 4013 c-10 -10 -7 -50 6 -79 12 -25 10 -29 -25 -58 -20 -17 -37
-37 -37 -43 0 -12 37 -18 81 -14 9 1 23 -15 35 -41 10 -23 24 -43 30 -45 6 -2
21 17 34 42 23 44 24 45 71 45 26 0 51 5 54 10 4 6 -11 27 -33 46 l-41 35 14
47 c8 26 11 50 6 55 -5 5 -29 -3 -56 -19 -38 -22 -51 -25 -64 -16 -35 25 -69
41 -75 35z m52 -41 c23 -18 23 -18 4 -36 -22 -19 -26 -16 -36 27 -7 31 0 34
32 9z m116 -16 c-7 -29 -25 -34 -43 -12 -10 12 -7 17 16 29 34 18 36 17 27
-17z m-33 -43 c14 -12 15 -19 6 -44 -6 -16 -19 -30 -29 -30 -10 -1 -26 -2 -35
-3 -10 -1 -22 12 -29 31 -13 30 -12 32 18 52 32 20 40 19 69 -6z m57 -73 c-41
-7 -42 -7 -34 25 l6 25 31 -22 31 -23 -34 -5z m-162 1 c-3 -4 -17 -6 -32 -3
l-27 5 24 18 c20 15 25 16 32 3 4 -8 6 -18 3 -23z m77 -55 l-15 -30 -13 25
c-16 29 -11 39 20 37 23 -2 23 -3 8 -32z"/>
<path d="M3939 3960 l-56 -40 -51 14 c-29 7 -54 11 -56 8 -3 -2 7 -28 21 -57
l26 -52 -34 -38 c-58 -63 -58 -65 14 -65 l65 0 30 -47 31 -47 20 48 c12 26 21
52 21 57 0 6 23 19 50 31 28 11 50 24 50 28 0 3 -20 21 -45 39 -35 25 -44 37
-40 54 6 30 15 107 12 107 -1 0 -27 -18 -58 -40z"/>
<path d="M983 3943 c-3 -10 -8 -21 -10 -25 -2 -5 0 -8 6 -8 16 0 33 38 21 45
-6 3 -13 -2 -17 -12z"/>
<path d="M3464 3935 c-29 -29 -26 -70 7 -97 56 -47 132 9 104 75 -22 53 -70
63 -111 22z m86 -14 c17 -34 12 -61 -16 -73 -47 -22 -89 23 -61 66 21 31 62
35 77 7z"/>
<path d="M966 3883 c-9 -10 -7 -53 3 -53 11 0 21 49 11 55 -4 2 -10 2 -14 -2z"/>
<path d="M963 3786 c2 -17 9 -32 16 -34 10 -3 11 2 6 19 -12 38 -27 48 -22 15z"/>
<path d="M977 3723 c-11 -18 0 -46 21 -54 24 -9 40 6 19 18 -8 4 -18 16 -24
27 -6 10 -13 14 -16 9z"/>
<path d="M913 3692 c-13 -2 -23 -8 -23 -13 0 -12 47 -12 55 0 7 13 -5 18 -32
13z"/>
<path d="M843 3667 c-22 -10 -31 -27 -15 -27 12 0 48 28 42 33 -3 2 -15 0 -27
-6z"/>
<path d="M1051 3661 c3 -8 16 -21 29 -30 18 -12 22 -13 19 -2 -3 8 -16 21 -29
30 -18 12 -22 13 -19 2z"/>
<path d="M1016 3618 c10 -18 19 -28 21 -21 5 15 -15 53 -28 53 -5 0 -2 -15 7
-32z"/>
<path d="M765 3610 c-15 -16 -15 -20 -3 -20 8 0 23 9 33 20 15 16 15 20 3 20
-8 0 -23 -9 -33 -20z"/>
<path d="M1108 3605 c-8 -8 3 -55 13 -55 5 0 9 8 9 18 0 20 -14 44 -22 37z"/>
<path d="M1050 3572 c0 -13 23 -32 39 -32 11 0 10 4 -4 20 -19 21 -35 26 -35
12z"/>
<path d="M733 3550 c-6 -14 -8 -29 -5 -34 7 -13 24 22 19 42 -3 14 -6 12 -14
-8z"/>
<path d="M720 3476 c0 -23 11 -46 20 -41 10 6 0 55 -11 55 -5 0 -9 -6 -9 -14z"/>
<path d="M742 3385 c12 -27 34 -35 24 -9 -3 9 -6 20 -6 25 0 5 -7 9 -15 9 -12
0 -13 -4 -3 -25z"/>
<path d="M4340 3388 c-11 -12 -20 -29 -21 -37 0 -9 -2 -25 -4 -36 -6 -30 12
-90 33 -108 39 -35 109 -22 165 30 49 48 24 101 -44 91 -15 -2 -28 -2 -27 1 7
71 -56 108 -102 59z"/>
<path d="M4238 3343 c-6 -28 9 -74 34 -100 l22 -23 -32 11 c-35 12 -97 5 -108
-12 -10 -17 1 -19 33 -7 24 9 40 9 70 0 24 -7 39 -8 41 -2 2 6 8 8 13 4 19
-12 8 12 -21 41 -17 18 -32 45 -34 63 -4 39 -13 51 -18 25z"/>
<path d="M84 3320 c-26 -10 -42 -30 -48 -62 -9 -54 71 -92 113 -54 54 49 3
141 -65 116z m64 -63 c6 -50 -70 -71 -87 -23 -10 25 6 64 28 69 25 6 56 -18
59 -46z"/>
<path d="M592 3272 c-26 -4 -65 -38 -70 -62 -9 -39 -4 -80 12 -104 15 -23 23
-27 59 -24 48 3 79 32 94 88 11 40 -1 99 -20 101 -38 4 -54 4 -75 1z"/>
<path d="M375 3217 c-8 -13 -14 -34 -13 -47 3 -19 -3 -24 -27 -27 -73 -9 -78
-90 -6 -120 23 -10 51 -13 79 -9 31 4 42 2 40 -6 -8 -22 -54 -49 -87 -50 -31
-1 -56 -17 -29 -19 39 -3 76 5 102 24 l28 20 -11 -21 c-15 -29 -14 -85 4 -108
13 -17 14 -14 8 33 -4 40 -2 59 11 78 15 22 14 29 -5 27 -14 -2 -5 35 14 56
49 53 -12 192 -83 192 -5 0 -16 -11 -25 -23z"/>
<path d="M4225 3182 c-11 -2 -32 -13 -47 -24 -52 -36 -30 -107 33 -108 23 0
27 -5 33 -39 11 -73 80 -60 116 22 28 64 13 128 -32 143 -28 9 -76 12 -103 6z"/>
<path d="M4440 3167 c-43 -21 -45 -24 -43 -64 3 -66 38 -96 114 -97 72 -1 82
9 75 77 -5 49 -33 86 -66 87 -9 0 -20 4 -26 10 -7 7 -25 2 -54 -13z"/>
<path d="M528 3044 c-52 -58 -39 -182 20 -201 52 -18 73 1 81 72 0 6 15 11 32
11 67 3 77 60 17 104 -44 32 -126 40 -150 14z"/>
<path d="M4570 2910 c-20 -13 -10 -19 22 -13 15 3 25 9 22 14 -7 12 -25 11
-44 -1z"/>
<path d="M4640 2911 c0 -11 40 -22 54 -14 5 4 1 10 -10 14 -27 11 -44 11 -44
0z"/>
<path d="M4710 2882 c0 -14 39 -46 47 -39 3 4 -2 16 -12 27 -19 21 -35 26 -35
12z"/>
<path d="M4770 2814 c0 -12 7 -27 15 -34 20 -17 21 9 0 36 -14 19 -14 19 -15
-2z"/>
<path d="M4788 2725 c-6 -29 7 -43 16 -19 9 23 7 44 -3 44 -5 0 -11 -11 -13
-25z"/>
<path d="M848 2652 c-21 -25 -27 -27 -56 -20 -63 16 -100 -34 -67 -89 31 -51
206 -166 219 -144 12 18 0 217 -14 245 -20 40 -53 43 -82 8z m68 -20 c4 -9 8
-61 10 -114 4 -107 3 -108 -58 -66 -14 10 -30 18 -35 18 -18 0 -103 90 -103
109 0 21 18 38 40 36 8 -1 22 -3 32 -3 11 -2 18 -15 23 -42 6 -34 10 -40 31
-40 34 0 41 26 15 60 -25 35 -25 34 -6 54 18 17 40 12 51 -12z m-50 -79 c-4
-4 -11 -1 -16 7 -16 25 -11 35 7 17 9 -9 13 -20 9 -24z"/>
<path d="M4773 2643 c-3 -16 -15 -41 -25 -58 -20 -33 -22 -45 -10 -45 5 0 14
12 20 26 9 18 17 24 31 19 11 -3 22 -1 25 4 4 5 -3 12 -13 16 -17 5 -19 10
-11 31 12 31 12 34 0 34 -5 0 -13 -12 -17 -27z"/>
<path d="M4680 2610 c0 -5 14 -10 30 -10 17 0 30 5 30 10 0 6 -13 10 -30 10
-16 0 -30 -4 -30 -10z"/>
<path d="M4617 2599 c-9 -6 -15 -14 -12 -19 6 -9 55 11 55 23 0 10 -22 8 -43
-4z"/>
<path d="M4848 2558 c12 -12 24 -19 28 -15 10 10 -16 37 -34 37 -13 0 -12 -4
6 -22z"/>
<path d="M4571 2557 c-7 -9 -11 -24 -9 -34 3 -16 5 -15 17 5 15 29 10 50 -8
29z"/>
<path d="M4696 2508 c-21 -29 -11 -37 15 -11 13 13 17 23 11 27 -6 3 -18 -4
-26 -16z"/>
<path d="M4891 2520 c0 -16 22 -50 33 -50 12 0 6 18 -14 41 -13 17 -19 19 -19
9z"/>
<path d="M4564 2474 c3 -9 6 -20 6 -25 0 -5 7 -9 15 -9 12 0 13 4 3 25 -12 27
-34 35 -24 9z"/>
<path d="M4634 2456 c-10 -8 -16 -17 -12 -21 8 -8 48 13 48 25 0 14 -13 12
-36 -4z"/>
<path d="M365 2427 c-31 -16 -42 -17 -58 -8 -10 7 -40 15 -67 18 -40 5 -51 2
-69 -16 -12 -12 -24 -35 -28 -51 -4 -23 -11 -30 -29 -30 -32 0 -90 -54 -104
-96 -24 -71 11 -135 92 -169 21 -8 38 -21 38 -29 0 -8 12 -22 28 -32 33 -23
139 -23 193 0 32 14 38 13 59 -1 70 -49 215 37 242 145 14 53 -37 132 -85 132
-8 0 -17 13 -21 31 -18 92 -114 146 -191 106z"/>
<path d="M4928 2425 c6 -35 24 -44 20 -9 -2 15 -8 29 -14 31 -7 2 -10 -6 -6
-22z"/>
<path d="M4937 2363 c-2 -5 -2 -14 -1 -20 1 -7 2 -18 3 -25 2 -18 11 -3 17 26
4 23 -9 37 -19 19z"/>
<path d="M4360 2310 c-11 -11 -20 -33 -20 -49 0 -75 104 -95 130 -25 26 67
-59 125 -110 74z m85 -24 c19 -29 8 -61 -24 -71 -25 -8 -61 15 -61 38 0 56 56
78 85 33z"/>
<path d="M4925 2270 c-9 -27 6 -50 16 -24 4 10 8 25 8 32 1 20 -17 14 -24 -8z"/>
<path d="M4900 2201 c0 -5 -3 -17 -7 -27 -4 -11 -2 -15 7 -12 20 6 33 48 15
48 -8 0 -15 -4 -15 -9z"/>
<path d="M4845 2131 c-16 -3 -29 -11 -27 -16 2 -6 10 -9 18 -7 8 2 14 -3 14
-10 1 -7 9 -2 20 11 14 16 20 19 20 8 0 -15 47 -30 55 -17 4 7 -12 15 -65 36
-3 1 -18 -1 -35 -5z"/>
<path d="M4743 2113 c-7 -2 -13 -9 -13 -14 0 -14 24 -11 46 6 19 14 19 14 -1
14 -11 0 -26 -3 -32 -6z"/>
<path d="M4970 2090 c0 -12 40 -33 48 -25 4 4 -2 13 -12 21 -23 16 -36 18 -36
4z"/>
<path d="M4683 2083 c-7 -2 -13 -14 -13 -26 l0 -21 20 22 c28 30 26 39 -7 25z"/>
<path d="M4805 2060 c-14 -16 -15 -20 -4 -20 16 0 39 19 39 32 0 14 -16 9 -35
-12z"/>
<path d="M5046 2025 c9 -14 20 -22 25 -19 12 7 -12 44 -29 44 -9 0 -8 -6 4
-25z"/>
<path d="M4660 2017 c0 -9 9 -21 20 -27 11 -6 20 -7 20 -2 0 5 -9 17 -20 27
-18 16 -20 16 -20 2z"/>
<path d="M4741 2016 c-15 -8 -20 -16 -13 -20 15 -9 54 12 47 25 -7 11 -5 11
-34 -5z"/>
<path d="M5085 1963 c8 -31 13 -39 20 -31 9 9 -6 58 -17 58 -6 0 -7 -11 -3
-27z"/>
<path d="M5100 1879 c0 -17 4 -28 10 -24 6 3 10 17 10 31 0 13 -4 24 -10 24
-5 0 -10 -14 -10 -31z"/>
<path d="M5099 1823 c0 -5 -2 -16 -4 -25 -2 -10 1 -20 6 -24 5 -3 9 -2 10 3 0
4 2 18 5 31 2 12 -1 22 -6 22 -6 0 -10 -3 -11 -7z"/>
<path d="M5072 1725 c-6 -14 -8 -25 -4 -25 12 0 32 23 32 37 0 22 -16 15 -28
-12z"/>
<path d="M146 1695 c-3 -8 -3 -22 0 -30 8 -19 -10 -19 -26 0 -7 8 -17 12 -22
9 -5 -3 -2 -14 7 -24 18 -20 8 -31 -23 -25 -12 2 -24 0 -27 -5 -7 -11 20 -20
47 -15 22 4 22 3 -5 -19 -35 -29 -23 -42 14 -15 30 21 33 18 30 -28 -1 -11 3
-24 8 -28 10 -6 16 21 12 53 -3 19 13 14 27 -8 7 -12 17 -18 23 -14 7 4 5 12
-4 22 -25 30 -26 38 -4 38 22 -1 37 18 17 20 -5 1 -13 2 -16 3 -3 0 4 10 17
21 28 23 5 28 -25 5 -24 -18 -36 -11 -30 20 5 27 -11 43 -20 20z"/>
<path d="M5021 1664 c-21 -25 -3 -30 22 -6 15 16 17 22 7 22 -8 -1 -21 -8 -29
-16z"/>
<path d="M4780 1631 c0 -12 39 -25 48 -16 7 7 -17 25 -35 25 -7 0 -13 -4 -13
-9z"/>
<path d="M4958 1633 c-10 -2 -18 -9 -18 -14 0 -15 43 -7 48 9 4 12 0 13 -30 5z"/>
<path d="M4855 1610 c3 -5 20 -10 36 -10 18 0 28 4 24 10 -3 6 -20 10 -36 10
-18 0 -28 -4 -24 -10z"/>
<path d="M4949 1463 c-1 -10 0 -25 1 -33 2 -12 -2 -12 -17 3 -31 27 -50 21
-23 -8 l23 -25 -36 0 c-20 0 -37 -4 -37 -10 0 -5 14 -10 31 -10 l30 0 -28 -25
c-31 -27 -13 -35 21 -10 29 22 33 19 31 -20 -1 -19 2 -35 6 -35 10 0 12 12 11
49 l-1 24 24 -23 c33 -31 45 -17 15 15 l-23 25 31 0 c18 0 32 5 32 10 0 6 -10
10 -22 10 l-22 0 22 16 c12 8 20 20 16 25 -3 5 -18 0 -35 -11 -30 -22 -33 -19
-29 28 1 12 -3 22 -9 22 -6 0 -12 -8 -12 -17z"/>
<path d="M140 1263 c0 -4 7 -32 16 -64 l16 -57 -31 -45 c-17 -25 -31 -48 -31
-50 0 -4 70 1 101 7 12 3 26 -13 45 -51 16 -30 32 -57 35 -59 4 -2 17 23 29
55 20 54 25 60 58 67 21 4 40 8 45 9 4 2 13 3 20 4 6 1 -9 21 -35 45 -45 40
-48 45 -48 94 0 29 -3 52 -6 52 -4 0 -28 -12 -55 -27 l-49 -26 -49 26 c-51 28
-61 31 -61 20z"/>
<path d="M4773 1072 c-23 -15 -35 -68 -35 -165 -1 -53 2 -100 6 -104 19 -19
187 91 213 141 30 56 5 96 -59 92 -31 -3 -45 2 -63 20 -25 25 -41 29 -62 16z
m51 -33 c13 -19 12 -23 -6 -41 -23 -23 -20 -61 6 -66 22 -5 36 14 36 49 0 20
6 28 26 33 76 19 87 -36 20 -98 -49 -45 -132 -93 -143 -82 -13 13 -2 193 13
218 9 15 33 8 48 -13z m12 -86 c-11 -11 -19 6 -11 24 8 17 8 17 12 0 3 -10 2
-21 -1 -24z"/>
</g>
</svg>
